# xmcd
# 
# Track frame offsets:
#     150
#     33854
#     68283
#     97430
#     112336
#     138476
#     180323
#     194577
#     217721
#     255342
#     285636
#     314045
#     328947
# 
# Disc length: 4520
# 
# Revision: 0
# Processed by: cddbd v1.5.2PL0 Copyright (c) Steve Scherf et al.
# Submitted via: BonkEnc v1.0.5
# 
DISCID=c411a60d
DTITLE=Livin' Blues - Live '75
DYEAR=1975
DGENRE=Blues
TTITLE0=Black Spider Woman
TTITLE1=I'm A Rambler
TTITLE2=Hoochie Coochie Man
TTITLE3=Crazy Joe
TTITLE4=I Wonder
TTITLE5=L.B.Boogie
TTITLE6=Boney Maroney
TTITLE7=Rock and Roll Hoochie Coo (bonus)
TTITLE8=I'm Coming Home (bonus)
TTITLE9=See My Baby Drive (bonus)
TTITLE10=Back Stage (bonus)
TTITLE11=Boogie Woogie Woman (bonus)
TTITLE12=Ricochet (bonus)
EXTD=YEAR: 1975
EXTT0=
EXTT1=
EXTT2=
EXTT3=
EXTT4=
EXTT5=
EXTT6=
EXTT7=
EXTT8=
EXTT9=
EXTT10=
EXTT11=
EXTT12=
PLAYORDER=
